# xmcd
#
# Track frame offsets:
#	150
#	20172
#	41812
#	61067
#	78290
#	99840
#	117245
#	133855
#	159305
#	178672
#	193030
#	211475
#	231037
#	250480
#
# Disc length: 3611 seconds
#
# Revision: 1
# Processed by: cddbd v1.5.1PL0 Copyright (c) Steve Scherf et al.
# Submitted via: CDex 1.50Beta5
#
DISCID=bd0e190e
DTITLE=さだまさし - MASASHI SADA&GRAPE BEST SELECTION
DYEAR=1900
DGENRE=
TTITLE0=雨やどり
TTITLE1=精霊流し
TTITLE2=秋桜
TTITLE3=朝刊
TTITLE4=案山子
TTITLE5=無縁坂
TTITLE6=縁切寺
TTITLE7=檸檬
TTITLE8=追伸
TTITLE9=線香花火
TTITLE10=ほおずき
TTITLE11=桃花減
TTITLE12=あこがれ
TTITLE13=呼殻の風景
EXTD=
EXTT0=
EXTT1=
EXTT2=
EXTT3=
EXTT4=
EXTT5=
EXTT6=
EXTT7=
EXTT8=
EXTT9=
EXTT10=
EXTT11=
EXTT12=
EXTT13=
PLAYORDER=
